<svg xmlns="http://www.w3.org/2000/svg" width="24" height="24" viewBox="0 0 24 24"><defs><style>.a{fill:#ec403c;}.b{fill:#fff;}</style></defs><g transform="translate(-176 -1861.596)"><path class="a" d="M383.378,104.114h0a12,12,0,0,1-12-12h0a12,12,0,0,1,12-12h0a12,12,0,0,1,12,12h0A12,12,0,0,1,383.378,104.114Z" transform="translate(-195.378 1781.482)"/><path class="b" d="M394.127,97.494c1.749,0,1.956.007,2.647.038a3.624,3.624,0,0,1,1.216.226A2.171,2.171,0,0,1,399.233,99a3.626,3.626,0,0,1,.226,1.216c.031.691.038.9.038,2.647s-.007,1.956-.038,2.647a3.621,3.621,0,0,1-.226,1.216,2.17,2.17,0,0,1-1.243,1.243,3.618,3.618,0,0,1-1.216.226c-.69.031-.9.038-2.647.038s-1.956-.007-2.647-.038a3.614,3.614,0,0,1-1.216-.226,2.169,2.169,0,0,1-1.243-1.243,3.634,3.634,0,0,1-.225-1.216c-.032-.691-.038-.9-.038-2.647s.006-1.956.038-2.647A3.638,3.638,0,0,1,389.021,99a2.17,2.17,0,0,1,1.243-1.243,3.62,3.62,0,0,1,1.216-.226c.691-.031.9-.038,2.647-.038m0-1.18c-1.779,0-2,.008-2.7.039a4.81,4.81,0,0,0-1.59.3,3.349,3.349,0,0,0-1.916,1.916,4.8,4.8,0,0,0-.3,1.59c-.032.7-.04.922-.04,2.7s.008,2,.04,2.7a4.806,4.806,0,0,0,.3,1.59,3.349,3.349,0,0,0,1.916,1.916,4.819,4.819,0,0,0,1.59.3c.7.032.922.039,2.7.039s2-.008,2.7-.039a4.82,4.82,0,0,0,1.59-.3,3.349,3.349,0,0,0,1.916-1.916,4.818,4.818,0,0,0,.3-1.59c.032-.7.039-.922.039-2.7s-.008-2-.039-2.7a4.816,4.816,0,0,0-.3-1.59,3.349,3.349,0,0,0-1.916-1.916,4.812,4.812,0,0,0-1.59-.3c-.7-.032-.922-.039-2.7-.039" transform="translate(-206.127 1770.732)"/><path class="b" d="M400.541,105.88a3.4,3.4,0,1,0,3.4,3.4,3.4,3.4,0,0,0-3.4-3.4m0,5.6a2.205,2.205,0,1,1,2.205-2.205,2.205,2.205,0,0,1-2.205,2.205" transform="translate(-212.541 1764.319)"/><path class="b" d="M416.966,103.916a.794.794,0,1,1-.794-.794.794.794,0,0,1,.794.794" transform="translate(-224.661 1766.17)"/></g></svg>