<svg xmlns="http://www.w3.org/2000/svg" width="24" height="24" viewBox="0 0 24 24"><defs><style>.a{fill:#ec403c;}.b{fill:#fff;}</style></defs><g transform="translate(-210 -1861.596)"><path class="a" d="M174.5,205.737h0a12,12,0,0,1-12-12h0a12,12,0,0,1,12-12h0a12,12,0,0,1,12,12h0A12,12,0,0,1,174.5,205.737Z" transform="translate(47.5 1679.859)"/><rect class="b" width="2.497" height="8.067" transform="translate(216.554 1870.896)"/><path class="b" d="M182.865,200.594a1.489,1.489,0,1,0-1.477-1.489A1.483,1.483,0,0,0,182.865,200.594Z" transform="translate(34.927 1669.289)"/><path class="b" d="M196.663,212.952c0-1.134.522-1.81,1.522-1.81.918,0,1.359.649,1.359,1.81v4.235h2.486v-5.108c0-2.16-1.225-3.205-2.935-3.205a2.813,2.813,0,0,0-2.431,1.333V209.12h-2.4v8.067h2.4Z" transform="translate(26.334 1661.776)"/></g></svg>