<svg xmlns="http://www.w3.org/2000/svg" width="24" height="24" viewBox="0 0 24 24"><defs><style>.a{fill:#ec403c;}.b{fill:#fff;}</style></defs><g transform="translate(-142 -1861.596)"><path class="a" d="M-86.033,139.978h0a12,12,0,0,1-12-12h0a12,12,0,0,1,12-12h0a12,12,0,0,1,12,12h0A12,12,0,0,1-86.033,139.978Z" transform="translate(240.033 1745.618)"/><path class="b" d="M-81.278,145.575a7.335,7.335,0,0,0,4,1.185,7.429,7.429,0,0,0,7.421-7.847,5.322,5.322,0,0,0,1.3-1.365,5.182,5.182,0,0,1-1.5.415A2.638,2.638,0,0,0-68.9,136.5a5.2,5.2,0,0,1-1.658.641,2.6,2.6,0,0,0-1.906-.833,2.634,2.634,0,0,0-2.543,3.239,7.384,7.384,0,0,1-5.381-2.756,2.657,2.657,0,0,0,.808,3.522,2.579,2.579,0,0,1-1.183-.33,2.635,2.635,0,0,0,2.094,2.62,2.589,2.589,0,0,1-1.179.045,2.615,2.615,0,0,0,2.439,1.832A5.209,5.209,0,0,1-81.278,145.575Z" transform="translate(228.915 1732.06)"/></g></svg>