<svg xmlns="http://www.w3.org/2000/svg" width="24" height="23.999" viewBox="0 0 24 23.999"><defs><style>.a{fill:#ec403c;}.b{fill:#fff;}</style></defs><g transform="translate(-108 -1861.596)"><path class="a" d="M278.345,104.113h0a12,12,0,0,1-12-12h0a12,12,0,0,1,12-12h0a12,12,0,0,1,12,12h0A12,12,0,0,1,278.345,104.113Z" transform="translate(-158.345 1781.482)"/><path class="b" d="M293.731,108.755h2.937v-7.288h2.049l.218-2.44h-2.268v-1.39c0-.575.116-.8.678-.8h1.59V94.3H296.9c-2.185,0-3.171.954-3.171,2.78v1.946H292.2V101.5h1.528Z" transform="translate(-175.569 1772.069)"/></g></svg>