<svg xmlns="http://www.w3.org/2000/svg" width="160" height="54.152" viewBox="0 0 160 54.152"><g transform="translate(-108 -1784)"><g transform="translate(188 1811.076)"><g transform="translate(-80 -27.076)"><path d="M25.156,1.253l-1.8.163a1.879,1.879,0,0,0-1.062.49,1.96,1.96,0,0,0-.49,1.062,11.679,11.679,0,0,0-.082,1.715V24.612h-.572L5.472,5.582V20.12a12.088,12.088,0,0,0,.082,1.8,1.879,1.879,0,0,0,.49,1.062,1.8,1.8,0,0,0,.98.49l1.8.163v.653H.653v-.653l1.8-.163a1.8,1.8,0,0,0,.98-.49,2.042,2.042,0,0,0,.49-1.062A10.536,10.536,0,0,0,4,20.2V3.7L3.185,2.642l-.817-.735-.98-.49L0,1.253V.6H5.8L20.255,18.323V4.684a10.536,10.536,0,0,0-.082-1.715,1.96,1.96,0,0,0-.49-1.062,1.879,1.879,0,0,0-.98-.49l-1.8-.163V.6h8.249Z" transform="translate(0 -0.109)"/><path d="M56.014,12.251A13.8,13.8,0,0,1,55.2,17.07a12.5,12.5,0,0,1-2.369,4A11.353,11.353,0,0,1,36,21.153a11.924,11.924,0,0,1-2.287-4,14.211,14.211,0,0,1-.817-4.819,13.149,13.149,0,0,1,.9-4.819,11.761,11.761,0,0,1,2.45-3.92A11.516,11.516,0,0,1,40.006.98,11.761,11.761,0,0,1,44.661,0a10.781,10.781,0,0,1,4.655.98,11.026,11.026,0,0,1,3.594,2.7A12.006,12.006,0,0,1,55.2,7.6a13.558,13.558,0,0,1,.817,4.655Zm-4,.245a21.05,21.05,0,0,0-.163-2.614,16.58,16.58,0,0,0-.49-2.614A11.434,11.434,0,0,0,50.542,4.9a6.942,6.942,0,0,0-1.388-1.879,6.371,6.371,0,0,0-2.042-1.307,7.6,7.6,0,0,0-2.777-.49,6.616,6.616,0,0,0-2.614.49,6.289,6.289,0,0,0-1.96,1.307A7.187,7.187,0,0,0,38.372,4.9a12.169,12.169,0,0,0-.9,2.287,15.681,15.681,0,0,0-.49,2.532,22.215,22.215,0,0,0,0,4.982,15.763,15.763,0,0,0,.49,2.532,13.8,13.8,0,0,0,.9,2.369,7.677,7.677,0,0,0,1.388,1.96,6.126,6.126,0,0,0,4.574,1.879,7.351,7.351,0,0,0,2.7-.49,6.371,6.371,0,0,0,2.042-1.225,7.024,7.024,0,0,0,1.388-1.879,11.516,11.516,0,0,0,.9-2.287,15.681,15.681,0,0,0,.49-2.532,24.419,24.419,0,0,0,.163-2.614Z" transform="translate(-6.029 0.001)"/><path d="M80.833,24.286l-8-11.026H70.3V20.12a9.965,9.965,0,0,0,.163,1.8,2.042,2.042,0,0,0,.49,1.062,1.96,1.96,0,0,0,1.062.49l1.8.163v.653H63.6v-.653l1.8-.163a1.8,1.8,0,0,0,.98-.49,1.96,1.96,0,0,0,.408-1.062,13.723,13.723,0,0,0,.082-1.8V4.765a13.966,13.966,0,0,0-.082-1.8,1.96,1.96,0,0,0-.408-1.062,1.8,1.8,0,0,0-.98-.572l-1.8-.163V.6H74.626L76.75.927l1.96.653a5.554,5.554,0,0,1,1.633,1.062,4.9,4.9,0,0,1,1.143,1.633,5.88,5.88,0,0,1,.572,2.369,5.962,5.962,0,0,1-.408,2.369,5.227,5.227,0,0,1-1.225,1.715,6.534,6.534,0,0,1-1.879,1.225,11.189,11.189,0,0,1-2.287.735l4.819,6.861L82.3,21.182a7.923,7.923,0,0,0,1.307,1.225,6.207,6.207,0,0,0,1.552.817,7.432,7.432,0,0,0,1.96.408v.653Zm-2.7-17.315a5.472,5.472,0,0,0-.327-2.042A4.492,4.492,0,0,0,76.75,3.377a4.737,4.737,0,0,0-1.633-.98,5.717,5.717,0,0,0-2.042-.327H71.686L70.3,2.315v9.8h.98a12.251,12.251,0,0,0,2.532-.245,6.861,6.861,0,0,0,2.205-.817A4.655,4.655,0,0,0,77.566,9.5a4.656,4.656,0,0,0,.572-2.532Z" transform="translate(-11.655 -0.109)"/><path d="M116.567,12.361a12.66,12.66,0,0,1-.98,5.227,10.373,10.373,0,0,1-2.777,3.757,11.761,11.761,0,0,1-4.165,2.205,17.887,17.887,0,0,1-5.227.735H92.8v-.653l1.8-.163a1.8,1.8,0,0,0,.98-.49,2.042,2.042,0,0,0,.49-1.062,10.944,10.944,0,0,0,.082-1.8V4.765a14.21,14.21,0,0,0-.082-1.8,1.96,1.96,0,0,0-.408-1.062,1.8,1.8,0,0,0-1.062-.49l-1.8-.163V.6h9.638a26.544,26.544,0,0,1,5.554.572,12.006,12.006,0,0,1,4.492,1.879,9.393,9.393,0,0,1,3.022,3.594,12.823,12.823,0,0,1,1.062,5.717Zm-3.92.163a13.4,13.4,0,0,0-.572-4.084A9.719,9.719,0,0,0,110.2,5.01a8.576,8.576,0,0,0-3.022-2.287,9.719,9.719,0,0,0-4.084-.817l-1.8.163-1.8.408V22.57l1.879.408,1.879.163a9.311,9.311,0,0,0,4.084-.817,8.576,8.576,0,0,0,2.94-2.287,10.046,10.046,0,0,0,1.8-3.349,13.476,13.476,0,0,0,.572-4.247Z" transform="translate(-17.006 -0.109)"/><path d="M124.7,24.286v-.653l1.8-.163a1.878,1.878,0,0,0,.98-.572,1.96,1.96,0,0,0,.408-1.062,13.479,13.479,0,0,0,.082-1.715V4.765a13.725,13.725,0,0,0-.082-1.8,1.96,1.96,0,0,0-.408-1.062,1.879,1.879,0,0,0-.98-.572l-1.8-.163V.6h10.128v.653l-1.8.163a1.879,1.879,0,0,0-1.062.572,2.042,2.042,0,0,0-.49,1.062,10.946,10.946,0,0,0-.082,1.8V20.12a11.921,11.921,0,0,0,.082,1.715,1.96,1.96,0,0,0,.49,1.062,1.879,1.879,0,0,0,.98.572l1.8.163v.653Z" transform="translate(-22.852 -0.109)"/><path d="M161.054,18.658a12.659,12.659,0,0,1-4,4.492,10.128,10.128,0,0,1-5.717,1.633,11.843,11.843,0,0,1-4.737-.9A10.7,10.7,0,0,1,143,21.353a11.271,11.271,0,0,1-2.287-3.839,13.64,13.64,0,0,1-.817-4.737,13.885,13.885,0,0,1,.9-4.9,12.251,12.251,0,0,1,2.45-4,11.516,11.516,0,0,1,3.757-2.7,11.843,11.843,0,0,1,4.9-.98l1.715.163,1.47.327,1.47.49,1.552.653.572-.163.408-.408.245-.49L159.5.2h.653l.49,8h-.49a13.639,13.639,0,0,0-1.143-2.7,8.658,8.658,0,0,0-1.633-2.124A7.024,7.024,0,0,0,155.173,2a7.841,7.841,0,0,0-2.94-.49,7.922,7.922,0,0,0-2.859.49A7.024,7.024,0,0,0,147.169,3.3a7.677,7.677,0,0,0-1.552,1.96,11.19,11.19,0,0,0-1.143,2.124,16.58,16.58,0,0,0-.572,2.7,21.719,21.719,0,0,0-.163,2.7,15.355,15.355,0,0,0,.49,4,9.638,9.638,0,0,0,1.552,3.349,7.6,7.6,0,0,0,2.777,2.287,10.367,10.367,0,0,0,6.616.49,7.351,7.351,0,0,0,2.042-.98,8.821,8.821,0,0,0,1.715-1.552l1.552-2.042Z" transform="translate(-25.638 -0.035)"/><path d="M20.837,60.286v-.653l1.8-.163a1.878,1.878,0,0,0,.98-.49,1.96,1.96,0,0,0,.49-1.062,10.536,10.536,0,0,0,.082-1.715V40.357L15.038,60.286h-.572L5.4,40.357V56.12a10.7,10.7,0,0,0,.082,1.8,2.042,2.042,0,0,0,.49,1.062,1.8,1.8,0,0,0,.98.49l1.8.163v.653H.5v-.653l1.8-.163a1.8,1.8,0,0,0,.98-.49,1.96,1.96,0,0,0,.49-1.062A11.761,11.761,0,0,0,3.849,56.2V40.684a7.432,7.432,0,0,0-.163-1.633,2.287,2.287,0,0,0-.49-1.062,2.124,2.124,0,0,0-.98-.572L.582,37.253V36.6H7.2l8.576,18.54L24.186,36.6h6.7v.653l-1.8.163a1.8,1.8,0,0,0-.98.49,1.96,1.96,0,0,0-.49,1.062,11.68,11.68,0,0,0-.082,1.715V56.12a10.7,10.7,0,0,0,.082,1.8,2.042,2.042,0,0,0,.49,1.062,1.8,1.8,0,0,0,.98.49l1.8.163v.653Z" transform="translate(-0.092 -6.706)"/><path d="M54.763,60.176v-.653h.817l.735-.245.572-.49a1.225,1.225,0,0,0,.245-.735,4.41,4.41,0,0,0-.245-1.307l-.653-1.715L55.58,53.4l-.49-1.062H45.942l-.327.653-.49.98-.408.98-.49,1.143-.408,1.143a2.94,2.94,0,0,0-.163.735.98.98,0,0,0,.327.735l.735.49.9.245h.817v.653H39v-.653a3.1,3.1,0,0,0,1.388-.408,3.675,3.675,0,0,0,1.062-.817,6.289,6.289,0,0,0,.735-1.225l.653-1.552L51.251,36h.572l8.249,19.6.653,1.47A5.227,5.227,0,0,0,61.46,58.3a3.349,3.349,0,0,0,1.062.817,4,4,0,0,0,1.633.327v.653ZM50.516,41.391l-4.084,9.638H54.6Z" transform="translate(-7.147 -6.596)"/><path d="M88.868,43.116a6.861,6.861,0,0,1-.653,3.185,5.227,5.227,0,0,1-1.8,2.042A7.432,7.432,0,0,1,83.8,49.4a16.5,16.5,0,0,1-3.185.327H79.067l-1.552-.245V56.1a9.882,9.882,0,0,0,.163,1.8,2.042,2.042,0,0,0,.49,1.062,1.879,1.879,0,0,0,1.062.49l1.8.163v.653H70.9v-.653l1.8-.163a1.8,1.8,0,0,0,.98-.49,1.96,1.96,0,0,0,.408-1.062,13.72,13.72,0,0,0,.082-1.8V40.747a13.966,13.966,0,0,0-.082-1.8,2.042,2.042,0,0,0-.408-1.062,1.715,1.715,0,0,0-.98-.572l-1.8-.163V36.5h8.576a20.01,20.01,0,0,1,3.267.245,9.719,9.719,0,0,1,3.022.98,6.207,6.207,0,0,1,2.205,1.96,5.636,5.636,0,0,1,.9,3.43Zm-4,.327a6.7,6.7,0,0,0-.327-2.124,5.146,5.146,0,0,0-.98-1.715,4.655,4.655,0,0,0-1.552-1.143,4.982,4.982,0,0,0-2.124-.408H78.741L77.6,38.3V48.343l1.47.163h1.47a4,4,0,0,0,1.879-.408A4.41,4.41,0,0,0,83.8,46.954a5.146,5.146,0,0,0,.9-1.633A5.8,5.8,0,0,0,84.866,43.442Z" transform="translate(-12.993 -6.688)"/><path d="M113.25,43.116A6.861,6.861,0,0,1,112.6,46.3a5.227,5.227,0,0,1-1.8,2.042,7.432,7.432,0,0,1-2.614,1.062,16.5,16.5,0,0,1-3.185.327h-1.47l-1.552-.163v6.616a9.882,9.882,0,0,0,.163,1.8,2.042,2.042,0,0,0,.49,1.062,1.878,1.878,0,0,0,1.062.49l1.8.163v.653H95.2V59.7l1.8-.163a1.8,1.8,0,0,0,.98-.49,1.96,1.96,0,0,0,.408-1.062,13.719,13.719,0,0,0,.082-1.8V40.747a13.966,13.966,0,0,0-.082-1.8,2.042,2.042,0,0,0-.408-1.062,1.715,1.715,0,0,0-.98-.572l-1.8-.163V36.5h8.576a20.01,20.01,0,0,1,3.267.245,9.719,9.719,0,0,1,3.022.98,6.207,6.207,0,0,1,2.205,1.96,5.636,5.636,0,0,1,.98,3.43Zm-4,.327a6.7,6.7,0,0,0-.327-2.124,5.146,5.146,0,0,0-.98-1.715,4.655,4.655,0,0,0-1.552-1.143,4.982,4.982,0,0,0-2.124-.408h-1.143l-1.143.245V48.343l1.47.163h1.47A4,4,0,0,0,106.8,48.1a4.41,4.41,0,0,0,1.388-1.143,5.146,5.146,0,0,0,.9-1.633,5.8,5.8,0,0,0,.163-1.879Z" transform="translate(-17.446 -6.688)"/><path d="M119.9,60.267v-.653l1.8-.163a1.879,1.879,0,0,0,.98-.572,1.96,1.96,0,0,0,.408-1.062,13.476,13.476,0,0,0,.082-1.715V40.747a13.721,13.721,0,0,0-.082-1.8,1.96,1.96,0,0,0-.408-1.062,1.878,1.878,0,0,0-.98-.572l-1.8-.163V36.5h10.128v.653l-1.8.163a1.879,1.879,0,0,0-1.062.572,2.042,2.042,0,0,0-.49,1.062,10.945,10.945,0,0,0-.082,1.8V56.1a12.007,12.007,0,0,0,.082,1.715,1.96,1.96,0,0,0,.49,1.062,1.879,1.879,0,0,0,.98.572l1.8.163v.653Z" transform="translate(-21.972 -6.688)"/><path d="M158.756,37.253l-1.8.163a1.879,1.879,0,0,0-1.062.49,1.96,1.96,0,0,0-.49,1.062,11.682,11.682,0,0,0-.082,1.715V60.612h-.572l-15.6-19.03V56.12a12.086,12.086,0,0,0,.082,1.8,1.878,1.878,0,0,0,.408,1.062,1.8,1.8,0,0,0,.98.49l1.8.163v.653h-8.167v-.653l1.8-.163a1.8,1.8,0,0,0,.98-.49,2.042,2.042,0,0,0,.49-1.062A10.539,10.539,0,0,0,137.6,56.2V39.7l-.817-1.062-.817-.735-.98-.49-1.388-.163V36.6h5.8l14.456,17.723V40.684a10.539,10.539,0,0,0-.082-1.715,1.96,1.96,0,0,0-.49-1.062,1.878,1.878,0,0,0-.98-.49l-1.8-.163V36.6h8.249Z" transform="translate(-24.483 -6.706)"/><path d="M190.494,47.924a3.92,3.92,0,0,0-1.47.245,1.633,1.633,0,0,0-.817.653,2.614,2.614,0,0,0-.327,1.062,11.935,11.935,0,0,0-.082,1.47v7.269a14.946,14.946,0,0,1-4,1.633,18.05,18.05,0,0,1-4.329.49,15.681,15.681,0,0,1-5.064-.817,12.251,12.251,0,0,1-4.165-2.369,11.026,11.026,0,0,1-2.777-3.757A12.088,12.088,0,0,1,166.4,48.66a12.741,12.741,0,0,1,.98-4.982,12.578,12.578,0,0,1,2.614-4,12.251,12.251,0,0,1,4-2.7,13.15,13.15,0,0,1,7.432-.735l2.042.49,1.388.49.735.245.408-.163.245-.408.163-.49V36h.572l.653,7.432h-.653a12.657,12.657,0,0,0-1.143-2.532,8.086,8.086,0,0,0-1.633-1.96A6.779,6.779,0,0,0,182,37.715a8.494,8.494,0,0,0-2.859-.408,8.249,8.249,0,0,0-4,.9,8.086,8.086,0,0,0-2.777,2.369A10.454,10.454,0,0,0,170.728,44a15.436,15.436,0,0,0-.49,4,16.009,16.009,0,0,0,.572,4.084,12.007,12.007,0,0,0,1.634,3.675,8.984,8.984,0,0,0,2.859,2.7,7.759,7.759,0,0,0,4.084,1.062,10.291,10.291,0,0,0,2.532-.327,9.065,9.065,0,0,0,2.369-.98V51.355a11.843,11.843,0,0,0-.082-1.633,2.042,2.042,0,0,0-.408-1.062,1.8,1.8,0,0,0-.9-.572l-1.633-.245v-.653h9.148Z" transform="translate(-30.494 -6.596)"/></g></g></g></svg>